<?xml version="1.0" encoding="UTF-8" standalone="no"?><!DOCTYPE svg PUBLIC "-//W3C//DTD SVG 1.1//EN" "http://www.w3.org/Graphics/SVG/1.1/DTD/svg11.dtd"><svg width="100%" height="100%" viewBox="0 0 272 92" version="1.1" xmlns="http://www.w3.org/2000/svg" xmlns:xlink="http://www.w3.org/1999/xlink" xml:space="preserve" xmlns:serif="http://www.serif.com/" style="fill-rule:evenodd;clip-rule:evenodd;stroke-linejoin:round;stroke-miterlimit:1.41421;"><path d="M115.75,47.18c0,12.77 -9.99,22.18 -22.25,22.18c-12.26,0 -22.25,-9.41 -22.25,-22.18c0,-12.86 9.99,-22.18 22.25,-22.18c12.26,0 22.25,9.32 22.25,22.18Zm-9.74,0c0,-7.98 -5.79,-13.44 -12.51,-13.44c-6.72,0 -12.51,5.46 -12.51,13.44c0,7.9 5.79,13.44 12.51,13.44c6.72,0 12.51,-5.55 12.51,-13.44Z" style="fill:#ea4335;fill-rule:nonzero;"/><path d="M163.75,47.18c0,12.77 -9.99,22.18 -22.25,22.18c-12.26,0 -22.25,-9.41 -22.25,-22.18c0,-12.85 9.99,-22.18 22.25,-22.18c12.26,0 22.25,9.32 22.25,22.18Zm-9.74,0c0,-7.98 -5.79,-13.44 -12.51,-13.44c-6.72,0 -12.51,5.46 -12.51,13.44c0,7.9 5.79,13.44 12.51,13.44c6.72,0 12.51,-5.55 12.51,-13.44Z" style="fill:#fbbc05;fill-rule:nonzero;"/><path d="M209.75,26.34l0,39.82c0,16.38 -9.66,23.07 -21.08,23.07c-10.75,0 -17.22,-7.19 -19.66,-13.07l8.48,-3.53c1.51,3.61 5.21,7.87 11.17,7.87c7.31,0 11.84,-4.51 11.84,-13l0,-3.19l-0.34,0c-2.18,2.69 -6.38,5.04 -11.68,5.04c-11.09,0 -21.25,-9.66 -21.25,-22.09c0,-12.52 10.16,-22.26 21.25,-22.26c5.29,0 9.49,2.35 11.68,4.96l0.34,0l0,-3.61l9.25,0l0,-0.01Zm-8.56,20.92c0,-7.81 -5.21,-13.52 -11.84,-13.52c-6.72,0 -12.35,5.71 -12.35,13.52c0,7.73 5.63,13.36 12.35,13.36c6.63,0 11.84,-5.63 11.84,-13.36Z" style="fill:#4285f4;fill-rule:nonzero;"/><rect x="215.5" y="3" width="9.5" height="65" style="fill:#34a853;fill-rule:nonzero;"/><path d="M262.02,54.48l7.56,5.04c-2.44,3.61 -8.32,9.83 -18.48,9.83c-12.6,0 -22.01,-9.74 -22.01,-22.18c0,-13.19 9.49,-22.18 20.92,-22.18c11.51,0 17.14,9.16 18.98,14.11l1.01,2.52l-29.65,12.28c2.27,4.45 5.8,6.72 10.75,6.72c4.96,0 8.4,-2.44 10.92,-6.14Zm-23.27,-7.98l19.82,-8.23c-1.09,-2.77 -4.37,-4.7 -8.23,-4.7c-4.95,0 -11.84,4.37 -11.59,12.93Z" style="fill:#ea4335;fill-rule:nonzero;"/><path d="M35.29,41.41l0,-9.41l31.71,0c0.31,1.64 0.47,3.58 0.47,5.68c0,7.06 -1.93,15.79 -8.15,22.01c-6.05,6.3 -13.78,9.66 -24.02,9.66c-18.98,0 -34.94,-15.46 -34.94,-34.44c0,-18.98 15.96,-34.44 34.94,-34.44c10.5,0 17.98,4.12 23.6,9.49l-6.64,6.64c-4.03,-3.78 -9.49,-6.72 -16.97,-6.72c-13.86,0 -24.7,11.17 -24.7,25.03c0,13.86 10.84,25.03 24.7,25.03c8.99,0 14.11,-3.61 17.39,-6.89c2.66,-2.66 4.41,-6.46 5.1,-11.65l-22.49,0.01Z" style="fill:#4285f4;fill-rule:nonzero;"/></svg>